<?xml version="1.0" encoding="utf-8"?>
<!-- Generator: Adobe Illustrator 23.0.3, SVG Export Plug-In . SVG Version: 6.00 Build 0)  -->
<svg version="1.1" id="Capa_1" xmlns="http://www.w3.org/2000/svg" xmlns:xlink="http://www.w3.org/1999/xlink" x="0px" y="0px"
	 viewBox="0 0 1200 1200" enable-background="new 0 0 1200 1200" xml:space="preserve">
<g>
	<path fill="#E6E6E6" d="M708.245,851.075c3.915-0.038,7.692,0.558,11.25,1.669c-1.396-193.856-3.456-480.021-3.516-488.347
		c-0.178-24.762-0.445-49.874-1.737-74.872c-1.119-21.657-3.04-43.219-6.305-64.404l-237.01,0.112
		c-7.582,53.883-6.285,113.241-4.568,168.323c0,0,0.315,48.071,0.624,94.357h249.589c0.03,3.704,0.06,12.336,0.091,16.04H467.167
		c-0.034-1.036-0.069-2.476-0.104-4.07c0.069,10.268,0.136,20.22,0.198,29.299h249.311c0.03,3.704,0.06,12.336,0.091,16.04H467.37
		c0.096,13.724,0.166,23.559,0.193,26.311c1.277,131.803,2.555,136.894,3.832,268.698c0.049,5.035,0.098,10.07,0.146,15.105
		c3.673-1.283,7.593-2.026,11.685-2.066L708.245,851.075z M589.049,425.583c-33.952,0-61.476-27.524-61.476-61.476
		c0-33.952,27.524-61.476,61.476-61.476s61.476,27.524,61.476,61.476C650.525,398.059,623.002,425.583,589.049,425.583z"/>
	<path fill="#808080" d="M467.167,503.952c-0.034-1.036-0.069-2.476-0.104-4.07c-0.091-4.095-0.184-9.299-0.278-11.969h0.199
		h249.589c0.03,3.704,0.06,12.336,0.091,16.04H467.167z M716.571,529.181H467.26h-0.476c0.132,3.709,0.26,12.342,0.383,16.04h0.203
		h249.292C716.632,541.517,716.602,532.884,716.571,529.181z"/>
	<path fill="#B3B3B3" d="M707.937,225.121l-237.01,0.112c6.346-45.106,18.667-85.402,44.433-125.491
		c13.654-21.243,31.676-41.958,56.196-47.999c20.323-5.007,42.305,1.198,59.462,13.188s29.99,29.255,40.269,47.488
		C690.964,147.323,701.837,185.552,707.937,225.121z M713.049,1028.492c-1.797-1.661-3.708-3.338-4.707-5.563
		c-0.027-0.062-0.055-0.123-0.081-0.186c-0.818-1.947-0.85-4.122-0.87-6.234c-0.4-42.769-0.8-85.539-1.2-128.308
		c14.343-0.529,28.089,5.327,39.373,14.424l-0.147-15.096c-0.159-16.332-11.08-30.15-25.922-34.785
		c-3.558-1.111-7.335-1.708-11.25-1.669l-225.018,2.192c-4.092,0.04-8.012,0.784-11.685,2.066
		c-14.5,5.064-24.926,18.95-24.769,35.105l0.188,19.266c11.826-11.643,27.312-19.69,43.734-19.404
		c0.433,42.769,0.867,85.538,1.3,128.307c0.021,2.112,0.032,4.287-0.749,6.25c-0.025,0.063-0.051,0.125-0.077,0.187
		c-0.956,2.244-2.834,3.958-4.598,5.654c-4.958,4.766-9.381,10.051-13.281,15.701c2.693,0.892,5.509,1.496,8.428,1.738
		c1.125,0.094,2.259,0.152,3.409,0.141l52.714-0.514l125.208-1.22l47.096-0.459c3.41-0.033,6.696-0.571,9.827-1.48
		c1.941-0.563,3.811-1.282,5.608-2.144C721.835,1037.443,717.656,1032.75,713.049,1028.492z"/>
	<path fill="#213945" d="M485.127,1048.277l52.714-0.514c-14.146,17.747-20.871,41.397-17.607,63.899
		c0.534,3.683,1.319,7.416,0.737,11.092c-0.581,3.676-2.915,7.372-6.529,8.263c-2.038,0.502-4.198,0.056-6.162-0.681
		c-10.556-3.961-16.222-15.336-19.599-26.093c-5.694-18.141-7.662-37.164-6.963-56.107
		C482.843,1048.23,483.977,1048.289,485.127,1048.277z M663.049,1046.544c14.814,17.872,21.906,42.104,18.567,65.119
		c-0.534,3.683-1.318,7.416-0.737,11.092c0.582,3.676,2.916,7.372,6.529,8.263c2.038,0.502,4.198,0.056,6.163-0.681
		c10.555-3.961,16.221-15.336,19.598-26.093c6.049-19.269,7.895-39.533,6.803-59.639c-3.131,0.909-6.417,1.447-9.827,1.48
		L663.049,1046.544z M491.169,1025.044c0.026-0.062,0.052-0.124,0.077-0.187c0.78-1.963,0.77-4.138,0.749-6.25
		c-0.433-42.769-0.867-85.538-1.3-128.307c-16.421-0.285-31.908,7.761-43.734,19.404c-2.852,2.807-5.496,5.818-7.883,8.978
		c-19.803,26.22-28.2,61.909-32.395,93.908c-4.523,34.496-3.157,70.189,7.972,103.365c4.603,13.723,12.16,28.182,25.809,33.002
		c2.541,0.897,5.324,1.415,7.927,0.72c4.616-1.233,7.519-6.037,8.174-10.769c0.654-4.733-0.446-9.505-1.224-14.219
		c-4.473-27.098,2.374-55.729,17.95-78.29c3.9-5.649,8.323-10.935,13.281-15.701
		C488.335,1029.002,490.213,1027.289,491.169,1025.044z M792.57,1008.831c-4.818-31.911-13.909-67.43-34.219-93.259
		c-3.728-4.741-8.045-9.124-12.787-12.947c-11.284-9.097-25.03-14.953-39.373-14.424c0.4,42.769,0.8,85.539,1.2,128.308
		c0.02,2.112,0.052,4.287,0.87,6.234c0.026,0.062,0.053,0.124,0.081,0.186c0.999,2.225,2.91,3.902,4.707,5.563
		c4.607,4.258,8.786,8.951,12.53,13.97c16.751,22.458,24.556,51.617,20.526,79.394c-0.686,4.728-1.693,9.521-0.946,14.241
		c0.746,4.719,3.743,9.465,8.382,10.608c2.616,0.645,5.389,0.073,7.912-0.874c13.551-5.085,20.826-19.689,25.16-33.499
		C797.093,1078.945,797.764,1043.232,792.57,1008.831z M650.525,364.107c0,33.952-27.524,61.476-61.476,61.476
		s-61.476-27.524-61.476-61.476c0-33.952,27.524-61.476,61.476-61.476S650.525,330.155,650.525,364.107z M636.144,364.107
		c0-26.01-21.085-47.095-47.094-47.095c-26.01,0-47.095,21.085-47.095,47.095c0,26.01,21.085,47.095,47.095,47.095
		C615.059,411.202,636.144,390.117,636.144,364.107z"/>
	<path fill="#74B8D8" d="M636.144,364.107c0,26.01-21.085,47.095-47.094,47.095c-26.01,0-47.095-21.085-47.095-47.095
		c0-26.01,21.085-47.095,47.095-47.095C615.059,317.013,636.144,338.098,636.144,364.107z"/>
</g>
</svg>
